<svg width="73" height="74" viewBox="0 0 73 74" fill="none" xmlns="http://www.w3.org/2000/svg">
<g clip-path="url(#clip0_701_737)">
<path d="M15.854 0.877075H19.1026V4.0974H22.0969V0.877075H25.3455V10.6228H22.0969V7.37423H19.1308V10.6228H15.854V0.877075ZM29.6393 4.12565H26.7721V0.877075H35.7692V4.12565H32.8879V10.6228H29.6393V4.12565ZM37.1958 0.877075H40.5997L42.6901 4.30927L44.7805 0.877075H48.1844V10.6228H44.9358V5.79231L42.6618 9.29512L40.3878 5.79231V10.6228H37.1958V0.877075ZM49.7946 0.877075H53.0432V7.40248H57.6477V10.6228H49.7946" fill="white"/>
<path d="M15.7517 67.4022L11.0907 15.0861H62.3335L57.6725 67.374L36.6697 73.1931" fill="#E44D26"/>
<path d="M36.6947 68.743V19.3788H57.6409L53.6438 64.0114" fill="#F16529"/>
<path d="M20.6059 25.7777H36.7075V32.1901H27.6397L28.233 38.7579H36.7075V45.1562H22.3573L20.6059 25.7777ZM22.6398 48.3765H29.0804L29.5324 53.5036L36.7075 55.4245V62.1194L23.5437 58.4471" fill="#EBEBEB"/>
<path d="M52.7333 25.7777H36.6599V32.1901H52.1401L52.7333 25.7777ZM51.561 38.7579H36.6599V45.1703H44.5695L43.8209 53.5036L36.6599 55.4245V62.0911L49.7954 58.4471" fill="white"/>
</g>
<defs>
<clipPath id="clip0_701_737">
<rect width="72.3161" height="72.3161" fill="white" transform="translate(0.55072 0.876709)"/>
</clipPath>
</defs>
</svg>
